<svg width="20" height="20" viewBox="0 0 20 20" fill="none" xmlns="http://www.w3.org/2000/svg">
<path d="M7.4987 8.83333C7.4987 9.05435 7.4109 9.26631 7.25462 9.42259C7.09834 9.57887 6.88638 9.66667 6.66536 9.66667C6.44435 9.66667 6.23239 9.57887 6.07611 9.42259C5.91983 9.26631 5.83203 9.05435 5.83203 8.83333C5.83203 8.61232 5.91983 8.40036 6.07611 8.24408C6.23239 8.0878 6.44435 8 6.66536 8C6.88638 8 7.09834 8.0878 7.25462 8.24408C7.4109 8.40036 7.4987 8.61232 7.4987 8.83333ZM10.832 8.83333C10.832 9.05435 10.7442 9.26631 10.588 9.42259C10.4317 9.57887 10.2197 9.66667 9.9987 9.66667C9.77768 9.66667 9.56572 9.57887 9.40944 9.42259C9.25316 9.26631 9.16536 9.05435 9.16536 8.83333C9.16536 8.61232 9.25316 8.40036 9.40944 8.24408C9.56572 8.0878 9.77768 8 9.9987 8C10.2197 8 10.4317 8.0878 10.588 8.24408C10.7442 8.40036 10.832 8.61232 10.832 8.83333ZM14.1654 8.83333C14.1654 9.05435 14.0776 9.26631 13.9213 9.42259C13.765 9.57887 13.553 9.66667 13.332 9.66667C13.111 9.66667 12.8991 9.57887 12.7428 9.42259C12.5865 9.26631 12.4987 9.05435 12.4987 8.83333C12.4987 8.61232 12.5865 8.40036 12.7428 8.24408C12.8991 8.0878 13.111 8 13.332 8C13.553 8 13.765 8.0878 13.9213 8.24408C14.0776 8.40036 14.1654 8.61232 14.1654 8.83333Z" fill="#383E4A"/>
<path d="M7.94856 15L8.49687 14.7C8.38724 14.4996 8.177 14.375 7.94856 14.375V15ZM9.12255 17.146L8.57424 17.446L9.12255 17.146ZM10.8772 17.1459L11.4256 17.4458L10.8772 17.1459ZM12.0508 15V14.375C11.8223 14.375 11.612 14.4997 11.5024 14.7001L12.0508 15ZM2.625 6C2.625 4.13604 4.13604 2.625 6 2.625V1.375C3.44568 1.375 1.375 3.44568 1.375 6H2.625ZM2.625 11V6H1.375V11H2.625ZM6 14.375C4.13604 14.375 2.625 12.864 2.625 11H1.375C1.375 13.5543 3.44568 15.625 6 15.625V14.375ZM7.94856 14.375H6V15.625H7.94856V14.375ZM9.67087 16.8461L8.49687 14.7L7.40024 15.3L8.57424 17.446L9.67087 16.8461ZM10.3289 16.846C10.1866 17.1061 9.81313 17.1061 9.67087 16.8461L8.57424 17.446C9.19071 18.5729 10.8093 18.5728 11.4256 17.4458L10.3289 16.846ZM11.5024 14.7001L10.3289 16.846L11.4256 17.4458L12.5991 15.2999L11.5024 14.7001ZM14 14.375H12.0508V15.625H14V14.375ZM17.375 11C17.375 12.864 15.864 14.375 14 14.375V15.625C16.5543 15.625 18.625 13.5543 18.625 11H17.375ZM17.375 6V11H18.625V6H17.375ZM14 2.625C15.864 2.625 17.375 4.13604 17.375 6H18.625C18.625 3.44568 16.5543 1.375 14 1.375V2.625ZM6 2.625H14V1.375H6V2.625Z" fill="#383E4A"/>
</svg>
