<svg width="20" height="20" viewBox="0 0 20 20" fill="none" xmlns="http://www.w3.org/2000/svg">
<path d="M9.53719 4.52051C9.65571 4.6602 9.82955 4.74086 10.0128 4.74115C10.196 4.74145 10.3701 4.66135 10.489 4.52205C11.0507 3.86441 11.9927 3.14167 13.4379 3.14401C15.9267 3.14804 17.7114 5.55683 17.7075 7.92444C17.7056 9.07997 17.2556 10.2184 16.5278 11.3002C15.8006 12.3813 14.8185 13.3719 13.8122 14.2178C12.8083 15.0617 11.7973 15.7475 11.028 16.222C10.6438 16.4591 10.3226 16.6417 10.0961 16.7636C10.0587 16.7837 10.0243 16.802 9.99284 16.8184C9.96145 16.8019 9.92707 16.7835 9.8898 16.7633C9.66365 16.6406 9.34304 16.4569 8.9596 16.2187C8.1919 15.7416 7.1832 15.0526 6.18207 14.2055C5.17861 13.3563 4.19973 12.3625 3.47606 11.2791C2.7519 10.1949 2.3056 9.05505 2.3075 7.89951C2.31141 5.5319 4.10409 3.12891 6.59289 3.13293C8.03811 3.13527 8.9777 3.86105 9.53719 4.52051Z" stroke="#383E4A" stroke-width="1.25" stroke-linecap="round" stroke-linejoin="round"/>
</svg>
