<svg width="24" height="24" viewBox="0 0 24 24" fill="inherit" xmlns="http://www.w3.org/2000/svg">
<path fill="inherit" d="M11.5012 22C12.5889 22 13.4787 21.0769 13.4787 19.9487H9.5237C9.5237 21.0769 10.4037 22 11.5012 22ZM17.4338 15.8462V10.7179C17.4338 7.56923 15.8122 4.93333 12.9844 4.2359V3.53846C12.9844 2.68718 12.3219 2 11.5012 2C10.6805 2 10.0181 2.68718 10.0181 3.53846V4.2359C7.18033 4.93333 5.56865 7.55897 5.56865 10.7179V15.8462L4.29315 17.1692C3.67023 17.8154 4.10528 18.9231 4.98528 18.9231H18.0073C18.8873 18.9231 19.3322 17.8154 18.7093 17.1692L17.4338 15.8462Z" fill="#383E4A"/>
</svg>
