<svg width="99" height="18" viewBox="0 0 99 18" fill="none" xmlns="http://www.w3.org/2000/svg">
<ellipse cx="17.3936" cy="8.27443" rx="5.74121" ry="5.23463" fill="#00D5E1"/>
<ellipse cx="17.3919" cy="8.27392" rx="3.20832" ry="2.8706" fill="white"/>
<path d="M84.1439 3.5146H86.9481V12.9092H84.1281L83.8746 12.1488C83.431 12.5131 82.9241 12.7825 82.3854 12.9726C81.8151 13.1468 81.2447 13.2261 80.6586 13.2261C79.914 13.2102 79.2328 13.0835 78.6307 12.83C78.0129 12.5765 77.4901 12.228 77.0465 11.7844C76.6029 11.3408 76.2544 10.818 76.0167 10.216C75.7632 9.61397 75.6523 8.96443 75.6523 8.23567C75.6523 7.50692 75.7791 6.82569 76.0484 6.19199C76.3019 5.58997 76.6504 5.05133 77.1099 4.60774C77.5534 4.16415 78.0762 3.81561 78.6941 3.56213C79.2961 3.32449 79.9457 3.19775 80.6427 3.19775C81.2448 3.19775 81.8309 3.27697 82.3696 3.43539C82.9082 3.59382 83.3993 3.8473 83.8588 4.17999L84.1439 3.5146ZM81.1497 10.5012C81.8151 10.5012 82.3379 10.2952 82.7498 9.86745C83.1459 9.45555 83.3518 8.90106 83.3518 8.23567C83.3518 7.5386 83.1459 6.98411 82.7498 6.55637C82.3379 6.14446 81.8151 5.93851 81.1497 5.93851C80.4843 5.93851 79.9457 6.14446 79.5496 6.55637C79.1377 6.98411 78.9476 7.5386 78.9476 8.23567C78.9476 8.90106 79.1377 9.45555 79.5496 9.86745C79.9457 10.2952 80.4843 10.5012 81.1497 10.5012Z" fill="#00D5E1"/>
<path d="M69.5498 3.5144L70.833 8.42558L72.2113 3.5144H75.158L72.3539 12.909H69.5339L67.9813 7.04728L66.4288 12.909H63.6088L60.8047 3.5144H63.7514L65.1139 8.42558L66.4129 3.5144H69.5498Z" fill="#00D5E1"/>
<path d="M59.1516 12.5214C59.1516 13.2185 59.0248 13.8681 58.7872 14.4542C58.5337 15.0246 58.201 15.5315 57.7891 15.9434C57.3455 16.3553 56.8386 16.6722 56.2524 16.9257C55.6504 17.1475 55.0167 17.29 54.3196 17.3217C53.7018 17.3376 53.0997 17.29 52.4977 17.1633C51.8957 17.0207 51.3412 16.7989 50.8659 16.4821C50.3748 16.1652 49.9788 15.7533 49.6619 15.2464C49.3292 14.7394 49.1391 14.2904 49.0916 13.5616H52.3868C52.4185 13.9577 52.6162 14.1608 52.933 14.3826C53.234 14.5727 53.5592 14.6127 53.9394 14.6127C54.1929 14.6127 54.4463 14.5651 54.684 14.4859C54.9058 14.3909 55.1117 14.28 55.3018 14.1215C55.4603 13.9473 55.6029 13.7413 55.7137 13.5195C55.8088 13.2819 55.8563 13.0126 55.8563 12.7115V11.967C55.5236 12.2521 55.1434 12.4898 54.7157 12.6482C54.2721 12.8066 53.8285 12.8858 53.3849 12.8858C52.7512 12.8858 52.165 12.7908 51.6264 12.6165C51.0877 12.4264 50.6125 12.1571 50.2322 11.8244C49.8203 11.4758 49.5193 11.0798 49.2975 10.6203C49.0757 10.1609 48.9648 9.65395 48.9648 9.08362V3.49121H52.2601V8.0697C52.2601 8.46576 52.3076 8.79845 52.4027 9.05193C52.4977 9.3371 52.6245 9.54305 52.7829 9.70147C52.9413 9.87574 53.1156 9.98664 53.3374 10.05C53.5275 10.1292 53.7334 10.1609 53.9552 10.1609C54.4305 10.1609 54.8424 10.0183 55.1909 9.71732C55.5236 9.43215 55.7454 9.05193 55.8563 8.57666V3.49121H59.1516V12.5214Z" fill="#00D5E1"/>
<path d="M98.9992 12.5214C98.9992 13.2185 98.8725 13.8681 98.6349 14.4542C98.3814 15.0246 98.0487 15.5315 97.6368 15.9434C97.1932 16.3553 96.6862 16.6722 96.1001 16.9257C95.498 17.1475 94.8643 17.29 94.1673 17.3217C93.5494 17.3376 92.9474 17.29 92.3454 17.1633C91.7434 17.0207 91.1889 16.7989 90.7136 16.4821C90.2225 16.1652 89.8264 15.7533 89.5096 15.2464C89.1769 14.7394 88.9868 14.2904 88.9392 13.5616H92.2345C92.2662 13.9577 92.4638 14.1608 92.7807 14.3826C93.0817 14.5727 93.4068 14.6127 93.787 14.6127C94.0405 14.6127 94.294 14.5651 94.5316 14.4859C94.7534 14.3909 94.9594 14.28 95.1495 14.1215C95.3079 13.9473 95.4505 13.7413 95.5614 13.5195C95.6565 13.2819 95.704 13.0126 95.704 12.7115V11.967C95.3713 12.2521 94.9911 12.4898 94.5633 12.6482C94.1197 12.8066 93.6761 12.8858 93.2326 12.8858C92.5989 12.8858 92.0127 12.7908 91.474 12.6165C90.9354 12.4264 90.4601 12.1571 90.0799 11.8244C89.668 11.4758 89.367 11.0798 89.1452 10.6203C88.9234 10.1609 88.8125 9.65395 88.8125 9.08362V3.49121H92.1077V8.0697C92.1077 8.46576 92.1553 8.79845 92.2503 9.05193C92.3454 9.3371 92.4721 9.54305 92.6305 9.70147C92.789 9.87574 92.9632 9.98664 93.185 10.05C93.3751 10.1292 93.5811 10.1609 93.8029 10.1609C94.2782 10.1609 94.6901 10.0183 95.0386 9.71732C95.3713 9.43215 95.5931 9.05193 95.704 8.57666V3.49121H98.9992V12.5214Z" fill="#00D5E1"/>
<path d="M39.8547 4.17999C40.0448 4.03741 40.2508 3.89482 40.4726 3.76808C40.6944 3.65719 40.9161 3.56213 41.1696 3.46708C41.3914 3.38786 41.6291 3.32449 41.8825 3.26112C42.1043 3.22944 42.3261 3.19775 42.5479 3.19775C43.1816 3.19775 43.7678 3.29281 44.3064 3.46708C44.8451 3.65719 45.3045 3.92651 45.7164 4.2592C46.0966 4.60774 46.4135 5.0038 46.6353 5.46323C46.8571 5.93851 46.968 6.44547 46.968 6.99996V12.9092H43.6727V8.01388C43.6727 7.63366 43.6252 7.30096 43.5302 7.0158C43.4351 6.76232 43.3084 6.54052 43.1499 6.36626C42.9915 6.20783 42.8014 6.09693 42.6113 6.01772C42.3895 5.95435 42.1835 5.92267 41.9776 5.92267C41.5023 5.92267 41.0904 6.06525 40.7577 6.35041C40.4092 6.65142 40.1715 7.03164 40.0765 7.50692V12.9092H36.7812V3.5146H39.6012L39.8547 4.17999Z" fill="#00D5E1"/>
<path d="M27.7844 4.17999C27.9745 4.03741 28.1804 3.89482 28.4022 3.76808C28.624 3.65719 28.8458 3.56213 29.0993 3.46708C29.3211 3.38786 29.5587 3.32449 29.8122 3.26112C30.034 3.22944 30.2558 3.19775 30.4776 3.19775C31.1113 3.19775 31.6975 3.29281 32.2361 3.46708C32.7748 3.65719 33.2342 3.92651 33.6461 4.2592C34.0263 4.60774 34.3432 5.0038 34.565 5.46323C34.7868 5.93851 34.8977 6.44547 34.8977 6.99996V12.9092H31.6024V8.01388C31.6024 7.63366 31.5549 7.30096 31.4598 7.0158C31.3648 6.76232 31.2381 6.54052 31.0796 6.36626C30.9212 6.20783 30.7311 6.09693 30.541 6.01772C30.3192 5.95435 30.1132 5.92267 29.9073 5.92267C29.432 5.92267 29.0201 6.06525 28.6874 6.35041C28.3389 6.65142 28.1012 7.03164 28.0062 7.50692V12.9092H24.7109V3.5146H27.5309L27.7844 4.17999Z" fill="#00D5E1"/>
<path d="M3.22463 13.3399H0V0H6.53457C7.29665 0 7.97911 0.102229 8.58195 0.306687C9.19617 0.500384 9.7137 0.79093 10.1346 1.17832C10.5668 1.56572 10.8966 2.0392 11.1241 2.59877C11.363 3.14758 11.4824 3.77709 11.4824 4.48732C11.4824 5.19754 11.363 5.83244 11.1241 6.392C10.8966 6.94081 10.5668 7.40891 10.1346 7.79631C9.7137 8.1837 9.19617 8.47963 8.58195 8.68409C7.97911 8.87778 7.29665 8.97463 6.53457 8.97463H3.22463V13.3399ZM3.22463 2.67948V6.29516H6.19334C6.79618 6.29516 7.2739 6.1445 7.62651 5.8432C7.99049 5.54189 8.17248 5.08993 8.17248 4.48732C8.17248 3.8847 7.99049 3.43274 7.62651 3.13144C7.2739 2.83013 6.79618 2.67948 6.19334 2.67948H3.22463Z" fill="#00D5E1"/>
<rect x="12.5" y="6.92285" width="9.11839" height="2.19517" fill="#00D5E1"/>
<path d="M16.7188 9.79397L23.4731 10.8071V9.11854H16.7188V9.79397Z" fill="white"/>
<rect x="11.6523" y="2.02637" width="11.8201" height="11.4824" fill="#F7F8F9"/>
<path d="M17.7325 13.5087C16.6607 13.5087 15.6984 13.2777 14.8458 12.8157C14.0054 12.3652 13.3477 11.7357 12.8727 10.9272C12.3977 10.1186 12.1602 9.20612 12.1602 8.18967C12.1602 7.17321 12.3977 6.26071 12.8727 5.45217C13.3477 4.64363 14.0054 4.01412 14.8458 3.56364C15.6984 3.10162 16.6607 2.87061 17.7325 2.87061C18.8043 2.87061 19.7605 3.10162 20.6009 3.56364C21.4535 4.01412 22.1173 4.64363 22.5923 5.45217C23.0673 6.26071 23.3049 7.17321 23.3049 8.18967C23.3049 8.52463 23.2805 8.85383 23.2318 9.17724H15.3939C15.5157 9.76633 15.7837 10.2226 16.1978 10.546C16.6119 10.8694 17.1235 11.0311 17.7325 11.0311C18.1953 11.0311 18.6034 10.9618 18.9566 10.8232C19.322 10.673 19.5717 10.4767 19.7057 10.2341H22.976C22.7933 10.881 22.4523 11.4469 21.9529 11.9321C21.4535 12.4287 20.8384 12.8157 20.1076 13.0929C19.3768 13.3701 18.5851 13.5087 17.7325 13.5087ZM20.1259 7.18476C19.9919 6.57258 19.7178 6.11055 19.3037 5.79869C18.8896 5.47527 18.3659 5.31356 17.7325 5.31356C17.0991 5.31356 16.5815 5.47527 16.1796 5.79869C15.7776 6.11055 15.5097 6.57258 15.3757 7.18476H20.1259Z" fill="#00D5E1"/>
</svg>
