<svg width="24" height="24" viewBox="0 0 24 24" fill="inherit" xmlns="http://www.w3.org/2000/svg">
<path fill="inherit" d="M16.4653 14.9631H15.6776L15.3984 14.6941C16.595 13.2988 17.2132 11.3953 16.8742 9.37226C16.4055 6.60173 14.0921 4.38929 11.3 4.05045C7.0819 3.53223 3.53195 7.08009 4.05048 11.2957C4.38952 14.0861 6.60326 16.3982 9.37541 16.8666C11.3997 17.2055 13.3043 16.5876 14.7003 15.3917L14.9696 15.6707V16.458L19.2076 20.6935C19.6164 21.1021 20.2845 21.1021 20.6934 20.6935C21.1022 20.2849 21.1022 19.6172 20.6934 19.2086L16.4653 14.9631ZM10.4823 14.9631C7.9993 14.9631 5.99498 12.96 5.99498 10.4785C5.99498 7.99696 7.9993 5.99381 10.4823 5.99381C12.9652 5.99381 14.9696 7.99696 14.9696 10.4785C14.9696 12.96 12.9652 14.9631 10.4823 14.9631Z" fill="#383E4A"/>
</svg>
