<svg width="84" height="97" viewBox="0 0 84 97" fill="none" xmlns="http://www.w3.org/2000/svg">
<rect x="6.35156" width="25.025" height="96.25" rx="4" fill="white"/>
<path d="M10.2016 65.4502C8.07526 65.4502 6.35156 63.7265 6.35156 61.6002L6.35156 3.85019C6.35156 1.72389 8.07526 0.00019066 10.2016 0.000190567L52.5516 0.000188715C69.5619 0.000187972 83.3516 13.7898 83.3516 30.8002L83.3516 34.6502C83.3516 51.6605 69.5619 65.4502 52.5516 65.4502L10.2016 65.4502Z" fill="white"/>
<path d="M3.85 44C1.7237 44 -7.53455e-08 42.2763 -1.68289e-07 40.15L-8.37073e-07 24.85C-9.30016e-07 22.7237 1.7237 21 3.85 21L50.5 21C56.8513 21 62 26.1487 62 32.5C62 38.8513 56.8513 44 50.5 44L3.85 44Z" fill="#A7FAFF"/>
<circle cx="46.7758" cy="32.725" r="3.85" fill="#00D0DC"/>
</svg>
